<svg preserveAspectRatio="none" width="99" height="96" viewBox="0 0 99 96" fill="none" xmlns="http://www.w3.org/2000/svg">
<g clip-path="url(#clip0)">
<path d="M72.0743 85.1857C58.1483 91.4233 45.9261 92.1246 32.9631 96C6.37055 65.8085 -19.3331 41.9654 20.852 11.1465C24.3335 30.782 35.1483 36.5029 47.2965 37.4256C61.778 38.496 79.1854 32.9596 92.2594 35.654C101.926 37.6471 99.1483 54.8835 96.6668 62.9296C93.3706 71.7509 87.4076 78.3945 72.0743 85.1857Z" fill="white"/>
<path d="M34.4448 18.1592C43.556 28.0877 60.593 24.7659 75.8152 24.9873C87.2967 24.8766 93.0745 28.1615 93.4819 28.3091C90.2226 6.71743 44.6671 -9.30102 28.7041 6.12689C29.1485 10.6667 32.0004 15.5017 34.4448 18.1592Z" fill="white"/>
</g>
<defs>
<clipPath id="clip0">
<rect width="99" height="96" fill="white"/>
</clipPath>
</defs>
</svg>
