<svg preserveAspectRatio="none" width="944" height="378" viewBox="0 0 944 378" fill="none" xmlns="http://www.w3.org/2000/svg">
<path d="M943.339 273.223C941.308 272.421 939.088 271.241 936.68 269.872C935.121 268.975 933.515 268.031 931.768 267.04C927.517 264.633 922.653 262.037 916.749 259.866C912.829 258.403 909.476 257.601 906.312 257.129C903.148 256.657 900.267 256.61 897.339 256.61C893.796 256.61 890.254 256.799 886.476 256.468C885.862 256.421 885.201 256.232 884.587 255.949C880.478 254.014 876.369 251.89 872.355 249.577C869.143 247.784 866.026 245.802 862.862 243.819L862.956 243.678C862.248 243.3 861.539 242.875 860.831 242.498C860.689 242.403 860.595 242.356 860.5 242.309C860.453 242.262 860.359 242.215 860.312 242.215C860.217 242.167 860.17 242.073 860.17 242.026C860.217 241.884 860.406 241.979 860.925 242.12C863.051 242.687 865.365 243.253 867.821 243.772C874.574 245.141 882.32 246.085 889.451 245.282C896.583 244.48 900.975 242.356 904.328 239.666C907.209 237.353 909.382 234.616 911.696 231.926C912.121 231.407 911.554 230.651 910.799 230.557C908.012 230.227 904.706 229.283 900.692 228.292C895.686 227.064 889.64 225.696 882.509 225.601C874.055 225.507 869.049 227.725 864.893 230.51C861.303 232.917 858.281 235.749 854.172 238.061C853.652 238.345 852.991 238.345 852.377 238.014C845.954 234.758 839.814 231.973 833.816 229.613C826.496 226.734 818.94 224.327 811.241 222.439C811.052 222.392 810.816 222.392 810.863 222.203C810.911 222.109 811.147 222.109 811.288 222.109C813.555 222.109 816.011 222.062 818.609 221.92C825.363 221.59 833.155 220.882 840.334 219.088C847.513 217.295 851.905 214.84 854.975 211.867C857.667 209.271 859.367 206.298 861.398 203.372C861.776 202.805 861.209 202.003 860.406 201.909C856.722 201.578 852.141 200.587 846.851 199.879C840.617 199.029 833.344 198.605 826.071 200.068C821.773 200.965 818.656 202.333 816.295 203.938C813.933 205.59 812.28 207.431 810.863 209.413C808.502 212.811 806.802 216.445 803.968 219.938C803.637 220.362 803.024 220.551 802.41 220.457C792.586 218.522 773.789 218.05 768.641 217.955C768.027 217.955 767.744 218.003 767.649 217.814C767.508 217.625 768.122 217.578 768.405 217.531C771.05 216.917 773.931 216.209 776.906 215.36C784.888 213 793.72 209.743 801.134 205.212C808.833 200.587 812.658 196.056 814.689 191.289C816.295 187.466 816.673 183.549 817.428 179.537C817.57 178.735 816.436 177.932 815.397 178.121C810.816 178.924 804.913 179.254 798.49 180.151C790.886 181.189 782.526 182.983 775.017 186.9C767.98 190.581 764.816 194.735 763.021 198.982C760.612 204.74 760.612 210.734 758.204 216.87C757.968 217.436 757.165 217.955 756.598 218.05C756.079 218.144 755.89 218.144 755.512 218.191C745.83 219.466 735.298 222.581 728.497 224.799C724.341 226.168 724.908 230.557 728.072 229.472C734.306 227.348 745.122 224.044 754.945 222.581C755.701 222.486 756.173 222.345 758.251 222.156C760.329 221.967 760.613 224.752 760.99 225.79C762.691 230.746 762.313 237.495 764.344 242.923C767.177 250.521 770.814 257.79 777.804 264.964C783.66 271.005 788.95 274.733 793.389 277.801C796.789 280.114 799.67 282.049 801.843 284.267C802.551 284.975 803.638 284.503 803.638 283.418C803.732 277.376 804.015 271.571 803.354 265.483C802.599 258.45 800.615 251.04 794.948 242.875C789.422 234.899 781.724 229.047 774.261 225.318C771.286 223.808 770.389 222.864 767.886 222.203C767.461 222.109 767.13 222.109 767.224 221.873C767.272 221.684 767.744 221.778 767.98 221.731C772.231 221.637 792.492 222.958 802.032 224.799C802.646 224.941 803.26 224.752 803.449 225.318C805.243 229.991 805.621 234.333 806.471 238.722C807.416 243.819 808.974 248.869 812.847 254.627C816.059 259.489 819.176 262.887 821.915 265.719C823.993 267.89 825.835 269.778 827.11 271.618C827.535 272.232 828.527 272.232 828.763 271.618C830.18 268.22 831.644 264.964 832.447 261.282C833.344 257.035 833.391 252.268 830.605 246.085C827.818 239.902 822.671 234.38 817.145 230.368C815.067 228.858 812.989 227.536 811.005 226.498C810.722 226.357 810.108 226.828 810.155 226.687C810.202 226.545 810.533 226.687 810.722 226.781C818.089 228.622 825.315 230.887 832.305 233.625C838.114 235.89 844.065 238.581 850.299 241.743C850.866 242.026 851.244 242.592 851.244 243.111C851.291 247.595 850.11 251.418 849.402 255.383C848.599 260.008 848.363 264.822 851.008 271.194C853.227 276.574 856.344 280.822 859.461 284.55C862.012 287.571 864.515 290.214 866.262 292.668C866.687 293.282 867.726 293.423 868.057 292.81C869.568 290.12 871.174 287.618 872.307 284.739C873.96 280.491 874.527 275.583 872.449 268.551C870.56 262.226 866.876 256.138 862.767 251.229C861.209 249.341 859.603 247.642 857.997 246.179C857.903 246.085 857.667 245.943 857.714 245.849C857.761 245.66 858.045 245.849 858.233 245.99C858.328 246.038 858.422 246.085 858.564 246.179C862.39 248.728 866.309 251.135 870.229 253.353C873.819 255.383 877.597 257.082 881.092 259.064C881.564 259.347 881.989 259.678 882.367 260.102C884.351 262.415 886.995 265.058 890.254 267.654C892.71 269.636 895.544 271.524 898.614 273.27C902.864 275.677 907.634 277.754 912.546 279.075C920.953 281.294 927.092 280.963 932.051 279.642C936.396 278.462 939.938 276.527 943.622 274.639C944.189 274.356 944.095 273.506 943.339 273.223Z" fill="white"/>
<path d="M58.0436 195.159V176.139C57.8075 173.874 57.3352 171.183 56.9101 168.965C55.5405 164.812 52.8013 161.98 47.5117 162.735C36.9798 164.198 34.9017 175.053 34.9017 184.446C34.9017 192.233 25.031 195.914 19.7414 196.67C14.688 197.378 5.76186 196.575 5.76186 188.788C5.76186 166.322 29.6122 156.08 47.984 153.484C71.5982 150.181 87.2307 159.006 87.2307 182.841V241.082C87.2307 241.79 87.4669 242.639 87.4669 243.111C87.9392 244.433 88.3642 244.81 89.5449 244.669C90.9145 244.48 92.2842 243.347 93.6538 242.262L94.7873 241.176L99.8407 246.887L99.3684 247.642C93.8427 255.76 85.3888 259.677 76.6516 260.905C70.4647 261.754 64.939 260.244 61.4913 255.902C54.8321 262.556 46.8033 266.002 37.8771 267.229C17.1911 270.155 0 261.093 0 239.76C0 215.218 19.033 198.557 43.3556 195.159C48.1729 194.451 53.2263 194.215 58.0436 195.159ZM58.0436 204.787C56.4379 204.551 54.596 204.599 52.7541 204.835C36.4603 207.147 30.2734 221.731 30.2734 236.221C30.2734 246.557 33.0126 257.601 44.7252 255.996C50.676 255.147 58.0436 249.294 58.0436 243.347V204.787Z" fill="white"/>
<path d="M199.823 212.15C199.823 219.041 202.137 221.212 209.221 219.985L210.591 219.796V228.952L170.683 246.934V236.834C164.024 244.197 154.389 248.539 145.227 249.813C112.403 254.438 103.241 227.253 103.241 201.578C103.241 171.325 115.379 143.714 151.414 138.617C157.601 137.768 164.968 137.39 170.683 140.033V113.414C170.683 111.573 170.447 109.78 169.786 108.978C169.313 107.892 168.416 107.09 166.574 107.373C165.205 107.562 163.835 108.222 162.654 108.6L158.309 110.582C139.937 119.125 101.635 137.343 83.0745 139.939C73.2038 141.307 60.1216 141.543 52.8012 134.558C49.5896 131.349 47.0865 127.337 47.0865 122.287C47.0865 114.028 53.9819 106.429 62.6719 105.202C66.3557 104.683 69.9923 106.004 73.0149 107.42L73.4872 107.798V109.402C73.4872 121.579 88.8364 121.013 99.6517 119.502C130.87 115.113 168.936 97.1783 198.076 81.8393L199.917 80.6594V212.15H199.823ZM158.073 147.396C138.568 150.133 133.751 186.333 133.751 201.248C133.751 215.029 136.962 238.627 154.389 236.173C160.812 235.276 166.102 229.943 169.55 224.421L170.447 223.383C170.447 223.147 170.683 222.911 170.683 222.675V217.625C170.683 214.887 170.683 212.103 170.919 211.395C170.919 200.162 171.628 188.835 171.628 177.366C171.628 170.05 171.864 160.847 170.73 153.862C170.022 148.481 163.835 146.593 158.073 147.396Z" fill="white"/>
<path d="M207.852 132.388L259 125.214V134.606L257.631 134.795C255.127 135.172 253.475 136.541 253.475 139.278C253.475 140.883 254.183 142.393 254.844 144.14L283.37 197L308.59 142.535C309.062 141.308 309.298 139.703 309.298 138.334C309.298 130.547 301.27 128.706 293.477 129.792L292.107 129.98V120.588L338.013 114.122V123.514L336.644 123.703C329.984 124.647 323.089 135.691 319.878 142.11L276.002 231.737L267.501 232.917L223.91 151.219C220.698 145.461 216.117 140.6 209.222 141.591L207.852 141.78V132.388Z" fill="white"/>
<path d="M426.519 147.962V151.644L362.288 160.658V160.894C362.288 179.018 370.553 200.115 391.901 197.094C402.905 195.537 413.909 188.504 419.671 178.971L420.332 177.743L427.227 181.142L426.519 182.369C417.357 201.767 406.305 215.69 382.691 219.041C348.734 223.808 331.968 199.784 331.968 170.003C331.968 141.355 348.026 111.337 381.51 106.618C410.697 102.512 426.519 122.287 426.519 147.962ZM396.435 146.452C395.962 142.157 394.829 134.275 392.326 127.998C389.586 120.352 385.666 115.16 380.613 115.868C375.087 116.623 370.742 122.995 367.531 131.254C364.792 138.523 363.375 146.499 362.95 151.172L396.435 146.452Z" fill="white"/>
<path d="M472.378 95.6683V104.4C479.934 95.5268 490.75 91.279 501.518 89.7687C522.393 86.8425 537.553 95.2436 537.553 116.813V176.186C537.553 183.313 539.631 185.295 546.951 184.257L548.321 184.068V193.46L497.598 200.587V191.195L498.967 191.006C506.335 189.968 508.366 187.372 508.366 180.292V121.343C508.366 110.771 503.076 101.002 491.364 102.653C481.729 104.022 472.331 117.001 472.331 126.441V185.39C472.331 192.516 474.409 194.499 481.729 193.46L482.862 193.319V202.711L432.375 209.79V200.398L433.745 200.209C441.065 199.171 443.143 196.623 443.143 189.496V130.5C443.143 123.373 441.065 121.391 433.745 122.429L432.375 122.618V113.698L472.378 95.6683Z" fill="white"/>
<path d="M586.198 79.2434L607.073 76.3172V85.7094L586.198 88.6356V164.764C586.198 169.814 588.04 173.684 593.33 172.929C596.541 172.457 599.753 170.192 602.492 167.502L603.625 166.416L609.34 172.033L608.632 173.024C601.5 182.51 593.235 189.165 581.097 190.864C565.04 193.13 557.011 184.823 557.011 170.192V92.7417L545.109 94.3936V85.2374L546.243 84.8599C561.592 81.3201 578.358 59.7039 583.412 45.2617L586.151 37.5214V79.2434H586.198Z" fill="white"/>
<path d="M649.531 70.3235V146.688C649.531 157.921 653.64 164.434 665.589 162.782C675.696 161.366 683.252 151.597 683.252 141.968V84.3882C683.252 77.4974 680.938 75.3264 673.854 76.3175L672.484 76.5063V67.1141L712.392 61.4977V137.862C712.392 144.753 714.706 149.001 721.791 148.01L723.16 147.821V156.977L683.252 174.959V163.773C675.46 172.222 664.644 177.177 654.112 178.64C632.34 181.708 620.391 172.363 620.391 151.266V93.214C620.391 86.3232 618.077 84.1522 610.993 85.1433L609.623 85.3321V75.9399L649.531 70.3235Z" fill="white"/>
<path d="M724.105 159.384L725.474 159.195C732.559 158.44 734.873 155.372 734.873 148.481V89.5325C734.873 82.6418 732.559 80.2347 725.474 81.4618L724.105 81.6506V72.7304L764.013 54.7484V69.6626C779.834 42.194 808.313 4.95565 841.326 0.330356C853.699 -1.41593 865.648 4.48368 865.648 17.5572C865.648 25.8167 860.122 33.2266 850.96 34.5481L850.063 34.6897L849.591 33.8402C847.512 28.8373 839.956 29.0261 833.769 29.8756C803.732 34.0761 778.465 61.9223 764.013 87.5974V144.47C764.013 151.36 766.327 153.768 773.411 152.54L774.545 152.399V161.791L724.058 168.871V159.384H724.105Z" fill="white"/>
<path d="M883.548 83.7744V87.4558L819.317 96.4704V96.7064C819.317 114.83 827.582 135.88 848.929 132.906C859.934 131.349 870.938 124.317 876.7 114.783L877.408 113.556L884.303 116.954L883.642 118.181C874.48 137.579 863.429 151.502 839.814 154.806C805.857 159.573 789.091 135.549 789.091 105.768C789.091 77.1196 805.149 47.1024 838.634 42.3827C867.726 38.3238 883.548 58.0993 883.548 83.7744ZM853.463 82.2641C852.991 77.9692 851.858 70.0873 849.354 63.8101C846.615 56.1642 842.695 50.9726 837.642 51.6805C832.116 52.4357 827.771 58.8072 824.56 67.0667C821.82 74.335 820.403 82.3113 819.978 86.9838L853.463 82.2641Z" fill="white"/>
<path d="M333.385 351.569L283.795 358.555L276.664 375.451L258.859 377.953L308.118 264.161L309.109 264.019L358.369 363.935L340.564 366.436L333.385 351.569ZM327.009 338.402L308.59 300.078L290.124 343.593L327.009 338.402Z" fill="white"/>
<path d="M448.244 246.651V351.381L431.809 353.694V309.47L386.422 315.842V360.065L370.034 362.378V257.648L386.422 255.335V299.512L431.809 293.14V248.964L448.244 246.651Z" fill="white"/>
<path d="M484.893 257.695V284.503L524.565 278.934V295.311L484.893 300.88V329.859L530.847 323.393V339.771L468.458 348.549V243.819L530.847 235.041V251.229L484.893 257.695Z" fill="white"/>
<path d="M613.968 312.207L564.379 319.193L557.247 336.089L539.442 338.59L588.701 224.799L589.693 224.657L638.952 324.573L621.147 327.074L613.968 312.207ZM607.592 298.992L589.173 260.668L570.707 304.184L607.592 298.992Z" fill="white"/>
<path d="M734.448 258.969C734.448 291.11 713.715 314.095 680.419 318.768L650.57 322.968V218.238L680.419 214.038C713.715 209.318 734.448 226.545 734.448 258.969ZM717.824 261.235C717.824 239.005 703.372 227.159 680.371 230.368L666.959 232.256V304.278L680.56 302.391C703.466 299.181 717.824 283.323 717.824 261.235Z" fill="white"/>
</svg>
