<?xml version="1.0" encoding="utf-8"?>
<!-- Generator: Adobe Illustrator 25.0.0, SVG Export Plug-In . SVG Version: 6.00 Build 0)  -->
<svg version="1.1" id="Layer_1" xmlns="http://www.w3.org/2000/svg" xmlns:xlink="http://www.w3.org/1999/xlink" x="0px" y="0px"
	 viewBox="0 0 32 32" style="enable-background:new 0 0 32 32;" xml:space="preserve">
<style type="text/css">
	.st0{fill:#005E62;}
	.st1{fill:#B4BB33;}
	.st2{fill:#F3EACD;}
</style>
<circle class="st0" cx="16.37" cy="16.37" r="13.63"/>
<g>
	<path class="st1" d="M23.93,26.55c-0.19-0.07-0.39-0.18-0.62-0.31c-0.14-0.08-0.3-0.17-0.46-0.26c-0.4-0.22-0.85-0.46-1.39-0.66
		c-0.36-0.13-0.67-0.21-0.96-0.25c-0.29-0.04-0.56-0.05-0.83-0.05c-0.33,0-0.66,0.01-1.01-0.01c-0.06,0-0.12-0.02-0.17-0.05
		c-0.38-0.18-0.76-0.37-1.13-0.58c-0.3-0.17-0.59-0.34-0.88-0.53l0.01-0.01c-0.07-0.04-0.13-0.07-0.19-0.11
		c-0.01-0.01-0.02-0.01-0.03-0.02c-0.01,0-0.01-0.01-0.02-0.01l0,0c-0.01-0.01-0.02-0.01-0.01-0.02c0.01-0.01,0.02,0,0.07,0.01
		c0.2,0.05,0.41,0.1,0.64,0.15c0.62,0.13,1.34,0.21,2,0.14c0.66-0.07,1.07-0.27,1.38-0.51c0.27-0.21,0.47-0.46,0.68-0.71
		c0.04-0.05-0.01-0.12-0.09-0.13c-0.26-0.03-0.56-0.12-0.93-0.21c-0.46-0.11-1.03-0.24-1.68-0.25c-0.78-0.01-1.25,0.19-1.63,0.45
		c-0.33,0.22-0.61,0.48-0.99,0.69c-0.05,0.03-0.11,0.03-0.17,0c-0.59-0.3-1.16-0.56-1.72-0.77c-0.68-0.26-1.38-0.48-2.09-0.66
		c-0.02,0-0.04-0.01-0.04-0.02c0-0.01,0.03-0.01,0.04-0.01c0.21,0,0.44,0,0.68-0.02c0.63-0.03,1.35-0.09,2.01-0.26
		c0.67-0.16,1.07-0.39,1.36-0.66c0.25-0.24,0.41-0.51,0.59-0.78c0.04-0.05-0.02-0.13-0.09-0.13c-0.34-0.03-0.77-0.12-1.26-0.19
		c-0.58-0.08-1.25-0.12-1.93,0.02c-0.4,0.08-0.69,0.21-0.9,0.35c-0.22,0.15-0.37,0.32-0.5,0.5c-0.22,0.31-0.38,0.64-0.64,0.96
		c-0.03,0.04-0.09,0.06-0.14,0.05c-0.91-0.18-2.65-0.22-3.13-0.23c-0.05,0-0.08,0-0.09-0.01c-0.01-0.02,0.04-0.02,0.07-0.03
		c0.25-0.05,0.51-0.12,0.79-0.2c0.74-0.21,1.55-0.51,2.24-0.92c0.71-0.42,1.07-0.84,1.25-1.27c0.15-0.35,0.18-0.71,0.25-1.08
		c0.01-0.08-0.09-0.15-0.19-0.13c-0.42,0.07-0.97,0.1-1.57,0.19c-0.71,0.09-1.48,0.26-2.17,0.62c-0.65,0.34-0.94,0.71-1.11,1.1
		c-0.22,0.53-0.22,1.08-0.44,1.64c-0.02,0.05-0.1,0.1-0.15,0.11c-0.05,0.01-0.07,0.01-0.1,0.01c-0.9,0.12-1.87,0.4-2.5,0.6
		C3.66,22.22,3.71,22.63,4,22.53c0.58-0.19,1.58-0.5,2.49-0.63c0.07-0.01,0.11-0.02,0.3-0.04c0.19-0.01,0.22,0.24,0.25,0.33
		c0.16,0.45,0.13,1.07,0.31,1.57c0.26,0.69,0.6,1.36,1.25,2.02c0.54,0.55,1.03,0.9,1.44,1.18c0.31,0.21,0.58,0.39,0.78,0.59
		c0.07,0.07,0.17,0.02,0.17-0.08c0.01-0.55,0.03-1.09-0.03-1.64c-0.07-0.64-0.26-1.32-0.78-2.07c-0.51-0.73-1.23-1.27-1.92-1.61
		C8,22.01,7.92,21.93,7.69,21.87c-0.04-0.01-0.07-0.01-0.06-0.03c0.01-0.02,0.05-0.01,0.07-0.01c0.39-0.01,2.27,0.11,3.15,0.29
		c0.06,0.01,0.11-0.01,0.13,0.05c0.17,0.43,0.2,0.83,0.28,1.23c0.09,0.47,0.23,0.93,0.59,1.46c0.3,0.44,0.59,0.75,0.84,1.02
		c0.19,0.2,0.37,0.37,0.48,0.54c0.04,0.06,0.13,0.06,0.15,0c0.13-0.31,0.27-0.61,0.34-0.94c0.08-0.39,0.09-0.83-0.17-1.39
		c-0.26-0.57-0.74-1.07-1.25-1.44c-0.19-0.14-0.39-0.26-0.57-0.36c-0.03-0.01-0.08,0.03-0.08,0.02c0-0.01,0.04,0,0.05,0.01
		c0.68,0.17,1.35,0.38,2,0.63c0.54,0.21,1.09,0.46,1.67,0.75c0.05,0.03,0.09,0.08,0.09,0.13c0,0.41-0.11,0.76-0.17,1.12
		c-0.07,0.42-0.09,0.86,0.15,1.45c0.21,0.49,0.5,0.88,0.79,1.22c0.24,0.28,0.47,0.52,0.63,0.74c0.04,0.06,0.14,0.07,0.17,0.01
		c0.14-0.25,0.29-0.48,0.39-0.74c0.15-0.39,0.21-0.84,0.01-1.48c-0.18-0.58-0.52-1.14-0.9-1.59c-0.14-0.17-0.29-0.33-0.44-0.46
		c-0.01-0.01-0.03-0.02-0.03-0.03c0.01-0.02,0.03,0,0.05,0.01c0.01,0.01,0.02,0.01,0.03,0.02c0.36,0.23,0.72,0.45,1.08,0.66
		c0.33,0.19,0.68,0.34,1.01,0.52c0.04,0.02,0.08,0.06,0.12,0.09c0.18,0.21,0.43,0.45,0.73,0.69c0.23,0.18,0.49,0.36,0.77,0.52
		c0.4,0.22,0.83,0.41,1.29,0.53c0.78,0.21,1.35,0.17,1.81,0.05c0.4-0.11,0.73-0.28,1.07-0.46C24.01,26.65,24,26.57,23.93,26.55z"/>
</g>
<g>
	<g>
		<path class="st2" d="M22.63,22.69c1.23-2.9,2.46-5.82,3.69-8.76c0.3-0.71,0.82-1.25,1.61-1.37c0.02,0,0.04-0.01,0.06-0.01
			c0-0.2,0-0.4,0.01-0.59c-1.29,0.16-2.58,0.31-3.87,0.43c0,0.2,0,0.4-0.01,0.59c0.02,0,0.04,0,0.06-0.01
			c0.14-0.01,0.31-0.03,0.49-0.05c0.17,0,0.34,0.01,0.48,0.03c0.28,0.06,0.5,0.21,0.5,0.56c0,0.14-0.02,0.33-0.08,0.46
			c-0.87,2.15-1.74,4.29-2.61,6.42c-0.91-2.13-1.82-4.28-2.73-6.45c-0.03-0.09-0.06-0.17-0.06-0.26c0-0.19,0.11-0.3,0.28-0.36
			c0.17-0.07,0.38-0.1,0.55-0.11c0.02,0,0.04,0,0.06,0c0-0.2,0-0.4,0.01-0.59c-1.41,0.08-2.83,0.12-4.24,0.11c0,0.2,0,0.4-0.01,0.59
			c0.02,0,0.04,0,0.06,0c0.61,0,1.03,0.17,1.26,0.72c1.21,2.94,2.43,5.84,3.64,8.71C22.08,22.73,22.36,22.71,22.63,22.69z"/>
	</g>
</g>
<g>
	<path class="st2" d="M20.32,12.65c-0.22,0.01-0.45,0.02-0.67,0.03c-0.3,0.93-0.6,1.85-0.9,2.76c0.12,0.28,0.23,0.56,0.35,0.84
		C19.5,15.09,19.91,13.88,20.32,12.65z"/>
	<path class="st2" d="M18.46,10.65c0.15-0.01,0.31-0.03,0.48-0.03c0.18-0.02,0.35,0,0.52,0.02c0.31,0.06,0.54,0.21,0.57,0.56
		c0.01,0.12,0,0.29-0.03,0.4c-0.07,0.22-0.14,0.44-0.21,0.66c0.22-0.01,0.45-0.02,0.68-0.03c0.08-0.23,0.15-0.45,0.23-0.68
		c0.25-0.72,0.82-1.24,1.56-1.38c0.02,0,0.04-0.01,0.06-0.01c-0.01-0.19-0.03-0.39-0.04-0.58c-1.3,0.23-2.59,0.4-3.9,0.5
		c0.01,0.19,0.03,0.38,0.04,0.57C18.42,10.65,18.44,10.65,18.46,10.65z"/>
	<path class="st2" d="M18.55,16.04c-0.19,0.56-0.37,1.13-0.56,1.69c-1.01-2.09-2.03-4.17-3.04-6.28c-0.03-0.07-0.05-0.13-0.06-0.21
		c-0.01-0.19,0.11-0.3,0.3-0.37c0.19-0.06,0.42-0.08,0.58-0.08c0.02,0,0.04,0,0.06,0c-0.01-0.19-0.03-0.38-0.04-0.57
		c-1.38,0.03-2.76-0.02-4.14-0.15c0.01,0.19,0.03,0.38,0.04,0.57c0.02,0,0.04,0,0.06,0.01c0.58,0.05,0.99,0.24,1.24,0.77
		c0.31,0.64,0.62,1.27,0.92,1.9c-0.51,1.45-1.02,2.9-1.53,4.33c-1.02-2.17-2.04-4.38-3.06-6.65c-0.03-0.08-0.05-0.14-0.06-0.22
		c-0.01-0.2,0.11-0.28,0.3-0.33c0.19-0.03,0.42-0.01,0.59,0.01c0.02,0,0.04,0.01,0.06,0.01c-0.01-0.19-0.03-0.38-0.04-0.57
		C8.79,9.71,7.39,9.43,6,9.05c0.01,0.2,0.03,0.39,0.04,0.59C6.06,9.64,6.08,9.65,6.1,9.65c0.58,0.15,0.99,0.42,1.25,1
		c1.37,3.14,2.74,6.14,4.1,9.07c0.26,0.02,0.52,0.04,0.78,0.06c0.69-1.86,1.37-3.73,2.06-5.63c0.93,1.94,1.86,3.85,2.78,5.77
		c0.25,0,0.51-0.01,0.76-0.01c0.35-1,0.7-2.02,1.05-3.04C18.78,16.6,18.66,16.32,18.55,16.04z"/>
</g>
</svg>
