<?xml version="1.0" encoding="utf-8"?>
<svg preserveAspectRatio="none" version="1.1" id="Layer_1" x="0px" y="0px" viewBox="9.776 151.935 337.983 51.721" style="enable-background:new 0 0 360 360;" xmlns="http://www.w3.org/2000/svg">
  <style type="text/css">
	.st0{fill:#FFFFFF;}
</style>
  <g>
    <path class="st0" d="M116.22,178.37c-82.17,12.84-103.93,1.22-103.93,1.22S19.7,209.09,116.22,178.37z" style=""/>
    <path class="st0" d="M347.81,154.47l-1.11,0.48c0.09-0.1,0.17-0.2,0.27-0.3c-0.91,0.2-1.84,0.37-2.8,0.53 c-0.3,0.03-0.59,0.06-0.89,0.09c-4.46,0.43-9.27,0.2-13.91-0.38c-4.81-0.56-92.32-8.5-157.16,13.24 c-79.52,26.51-133.69,32.32-155.23,26.38l-7.1-3.15v16.61h338.07L347.81,154.47z M39.41,204.47c0.03,0.01,0.05,0.01,0.08,0.02 l-0.02,0.01L39.41,204.47z" style=""/>
  </g>
</svg>