<svg preserveAspectRatio="none" width="420" height="391" viewBox="0 0 420 391" fill="none" xmlns="http://www.w3.org/2000/svg">
<g clip-path="url(#clip0)">
<path d="M397.297 129.353C393.681 130.451 389.404 131.24 384.668 131.977C381.591 132.439 378.4 132.888 374.966 133.425C366.616 134.737 357.232 136.453 346.894 139.862C340.007 142.097 334.597 144.617 329.799 147.38C325 150.144 321.042 153.178 317.071 156.327C312.267 160.137 307.665 164.201 302.186 167.817C301.303 168.414 300.203 168.869 299.067 169.146C291.416 170.944 283.563 172.487 275.636 173.673C269.355 174.698 262.999 175.366 256.579 176.085L256.555 175.792C255.189 176.042 253.772 176.229 252.406 176.48C252.112 176.504 251.933 176.542 251.755 176.58C251.64 176.566 251.461 176.604 251.397 176.655C251.218 176.693 251.053 176.616 251.002 176.552C250.914 176.309 251.272 176.234 252.128 175.867C255.619 174.348 259.366 172.626 263.254 170.688C273.883 165.279 285.402 158.227 294.213 149.472C303.024 140.716 306.7 133.117 308.36 125.868C309.785 119.639 309.792 113.596 310.043 107.464C310.062 106.304 308.482 105.891 307.356 106.576C303.222 109.125 297.725 111.403 291.216 114.378C283.109 118.1 273.44 122.747 263.667 130.289C252.099 139.252 247.691 147.64 245.044 155.88C242.76 162.999 241.701 170.084 238.611 177.634C238.21 178.576 237.313 179.287 236.126 179.5C223.918 181.998 212.601 184.83 201.933 188.085C188.913 192.059 176.08 196.926 163.612 202.648C163.305 202.788 162.985 203.042 162.847 202.735C162.809 202.557 163.129 202.303 163.322 202.15C166.396 199.712 169.677 197.007 173.048 194.022C181.853 186.312 191.662 176.973 199.473 166.825C207.283 156.676 210.606 148.63 211.577 141.302C212.441 134.893 211.555 129.038 211.168 122.892C211.072 121.719 209.442 121.242 208.252 121.977C202.901 125.492 195.623 129.076 187.689 133.806C178.322 139.36 168.001 146.606 159.707 156.409C154.841 162.245 152.083 167.45 150.603 172.163C149.174 176.939 148.908 181.209 149.115 185.417C149.56 192.557 151.156 199.307 151.062 207.083C151.07 208.014 150.44 208.93 149.506 209.462C134.105 217.406 108.104 236.981 101.021 242.39C100.188 243.05 99.8544 243.418 99.5236 243.264C99.4729 243.2 100.191 242.527 100.474 242.095C103.402 238.42 106.55 234.363 109.673 230.013C117.965 218.234 126.447 204.327 131.639 190.218C137.114 175.676 137.438 165.427 135.075 156.789C133.148 149.886 129.455 144.175 126.173 137.93C125.503 136.692 123.105 136.824 121.898 138.197C116.546 144.21 108.894 151.006 101.145 159.128C91.9471 168.711 82.5349 180.129 76.5559 193.509C71.0654 206.189 71.1821 215.152 73.3084 222.833C76.2235 233.22 82.6588 241.336 85.9793 252.234C86.267 253.255 85.7355 254.821 85.0175 255.495C84.2995 256.168 84.158 256.385 83.6962 256.855C71.933 268.992 60.9931 284.536 54.1507 294.853C49.9833 301.176 55.4644 306.51 58.5906 301.637C64.7657 292.057 75.8874 275.953 87.64 263.408C88.5636 262.467 89.0521 261.767 91.6678 259.277C94.2836 256.787 97.6575 260.252 99.2847 261.252C106.911 266.134 113.645 275.679 122.226 280.844C134.228 288.086 146.963 294.016 164.146 296.213C178.574 298.095 189.752 297.456 199.067 296.835C206.161 296.31 212.146 295.832 217.474 296.499C219.195 296.696 220.162 294.889 218.996 293.419C212.639 285.137 206.79 276.972 199.357 269.439C190.782 260.73 180.136 252.83 163.683 247.869C147.626 243.011 130.901 243.365 116.778 246.341C111.121 247.496 108.89 247.183 104.786 248.98C104.108 249.309 103.66 249.665 103.534 249.244C103.396 248.937 104.138 248.557 104.407 248.239C110.071 243.54 138.969 223.541 153.885 215.774C154.869 215.305 155.499 214.39 156.364 214.953C163.814 219.35 168.988 224.823 174.854 229.852C181.607 235.738 189.143 240.9 200.578 244.532C210.152 247.661 218.028 248.91 224.784 249.798C229.933 250.503 234.458 251.079 238.164 252.2C239.399 252.573 240.744 251.507 240.406 250.422C238.679 244.297 237.169 238.313 234.305 232.465C230.962 225.749 225.908 219.243 215.491 213.868C205.074 208.493 192.163 206.552 180.361 207.062C175.922 207.252 171.684 207.697 167.879 208.425C167.343 208.538 167.017 209.837 166.929 209.594C166.841 209.352 167.441 209.188 167.799 209.113C179.768 203.682 192 198.979 204.42 195.168C214.731 191.989 225.69 189.232 237.54 186.809C238.613 186.583 239.733 186.944 240.291 187.647C245.168 193.667 247.671 200.113 250.967 206.243C254.844 213.37 259.692 220.142 270.12 225.925C278.907 230.823 287.695 233.223 295.926 234.919C302.628 236.267 308.86 237.154 313.865 238.598C315.1 238.971 316.662 238.046 316.451 236.859C315.613 231.591 315.105 226.477 313.551 221.36C311.233 213.831 306.732 206.575 296.363 199.288C287.011 192.756 275.478 188.474 264.636 186.246C260.495 185.366 256.493 184.792 252.744 184.538C252.515 184.512 252.042 184.574 252.005 184.395C251.866 184.089 252.453 184.04 252.862 184.028C253.04 183.991 253.219 183.953 253.513 183.929C261.438 183.266 269.338 182.309 277.036 181.097C284.084 179.985 291.032 178.223 297.9 177.148C298.845 177.024 299.776 177.014 300.745 177.183C305.918 178.181 312.343 178.916 319.549 178.926C325.008 178.969 330.879 178.478 336.917 177.541C345.266 176.229 353.965 173.912 362.046 170.419C375.829 164.382 383.802 157.332 389.109 150.21C393.735 143.939 396.462 137.51 399.431 130.992C399.717 130.037 398.562 128.975 397.297 129.353Z" fill="white"/>
</g>
<defs>
<clipPath id="clip0">
<rect width="378" height="199" fill="white" transform="translate(0 234.851) rotate(-38.411)"/>
</clipPath>
</defs>
</svg>
