<svg width="33" height="32" viewBox="0 0 33 32" fill="none" xmlns="http://www.w3.org/2000/svg">
<g clip-path="url(#clip0)">
<path d="M24.0181 28.3858C19.3692 30.456 15.3191 30.7016 10.9872 31.9998C2.11204 21.9296 -6.44612 13.9998 6.93701 3.71912C8.09923 10.2805 11.6915 12.1753 15.7417 12.491C20.5667 12.8419 26.3778 10.9823 30.7449 11.8946C33.9498 12.5612 33.0341 18.3156 32.2241 20.9823C31.1323 23.9296 29.1601 26.1402 24.0181 28.3858Z" fill="#D77D52"/>
<path d="M11.4809 6.07013C14.5097 9.36837 20.2152 8.28065 25.2867 8.35083C29.1255 8.31574 31.0626 9.40346 31.1682 9.43855C30.0764 2.24557 14.8971 -3.08777 9.5791 2.03504C9.71998 3.54381 10.6709 5.15785 11.4809 6.07013Z" fill="#D77D52"/>
</g>
<defs>
<clipPath id="clip0">
<rect width="33" height="32" fill="white"/>
</clipPath>
</defs>
</svg>
